<svg id="Ebene_1" data-name="Ebene 1" xmlns="http://www.w3.org/2000/svg" viewBox="0 0 850.39 96.83"><defs><style>.cls-1{fill:#de1419;}</style></defs><title>Logo_NAVISWISS_RGB</title><path d="M173.16,1.2H184.9l46.86,74.85V1.2h11.49V95.45H231.89L184.65,21V95.45H173.16Z"/><path d="M292.41,1.2h12.52l35.75,94.25H327.77l-9.68-26.27H278.6l-9.68,26.27h-12.4Zm22.07,57.42L298.21,14.93l-16,43.69Z"/><path d="M334.4,1.2h13.42l28,78.54L404.36,1.2h12.78L381.77,95.45h-12Z"/><path d="M431.05,1.2h12V95.45h-12Z"/><path class="cls-1" d="M469.45,68.05q1.55,9.66,7.66,14t18.24,4.32A32.42,32.42,0,0,0,505.46,85,17.81,17.81,0,0,0,512,81.4a12.77,12.77,0,0,0,3.48-5.28,19.55,19.55,0,0,0,1-6.37,20.83,20.83,0,0,0-.65-5.21A10.7,10.7,0,0,0,513.32,60a15.86,15.86,0,0,0-5.16-3.6,33.67,33.67,0,0,0-8.44-2.45l-11.6-2.06A68.83,68.83,0,0,1,476,48.77a30.08,30.08,0,0,1-8.95-5,19.12,19.12,0,0,1-5.54-7.53,28.46,28.46,0,0,1-1.87-10.94,22.38,22.38,0,0,1,2.65-11.07,23.92,23.92,0,0,1,7.15-8,31,31,0,0,1,10.7-4.76A55,55,0,0,1,493.54,0a49.91,49.91,0,0,1,15.27,2,28.69,28.69,0,0,1,10,5.35A22.69,22.69,0,0,1,524.66,15a45.43,45.43,0,0,1,3,8.83L516.61,26a32.84,32.84,0,0,0-2.65-6.9,15.12,15.12,0,0,0-4.24-5,18.63,18.63,0,0,0-6.52-3,36.81,36.81,0,0,0-9.4-1,40.9,40.9,0,0,0-10.56,1.16,19.41,19.41,0,0,0-6.84,3.15,11.21,11.21,0,0,0-3.67,4.76A15.71,15.71,0,0,0,471.64,25a18.37,18.37,0,0,0,.83,5.84,10,10,0,0,0,2.84,4.31,17.39,17.39,0,0,0,5.21,3.09,43.6,43.6,0,0,0,8,2.18l12.89,2.33q14.3,2.7,21,9t6.7,18.39A25.45,25.45,0,0,1,527,80.46a23.82,23.82,0,0,1-6.32,8.46,30.67,30.67,0,0,1-10.53,5.68,48.2,48.2,0,0,1-14.85,2.06A62.48,62.48,0,0,1,480.5,95a33.46,33.46,0,0,1-11.56-5.11A26.28,26.28,0,0,1,461.08,81a32.55,32.55,0,0,1-3.62-12.94Z"/><path class="cls-1" d="M536.71,2.32h13.41L569.32,78l20-75.26h12.75L621.91,78,641,2.32h12.64l-25.52,92h-12.5L595.1,17.4,575,94.34H562.88Z"/><path class="cls-1" d="M666.43,2.32h12v92h-12Z"/><path class="cls-1" d="M706.45,68.05q1.54,9.66,7.66,14t18.24,4.32A32.37,32.37,0,0,0,742.46,85,17.86,17.86,0,0,0,749,81.4a12.87,12.87,0,0,0,3.48-5.28,19.82,19.82,0,0,0,1-6.37,20.83,20.83,0,0,0-.65-5.21A10.7,10.7,0,0,0,750.33,60a16.08,16.08,0,0,0-5.16-3.6,33.67,33.67,0,0,0-8.44-2.45l-11.6-2.06A68.72,68.72,0,0,1,713,48.77a30.08,30.08,0,0,1-9-5,19.12,19.12,0,0,1-5.54-7.53,28.46,28.46,0,0,1-1.87-10.94,22.38,22.38,0,0,1,2.65-11.07,23.92,23.92,0,0,1,7.15-8,31,31,0,0,1,10.7-4.76A55.17,55.17,0,0,1,730.55,0a50,50,0,0,1,15.27,2,28.64,28.64,0,0,1,10,5.35A22.85,22.85,0,0,1,761.67,15a45.43,45.43,0,0,1,3,8.83L753.61,26a32.29,32.29,0,0,0-2.64-6.9,15.14,15.14,0,0,0-4.25-5,18.5,18.5,0,0,0-6.51-3,36.9,36.9,0,0,0-9.41-1,41,41,0,0,0-10.56,1.16,19.41,19.41,0,0,0-6.84,3.15,11.13,11.13,0,0,0-3.67,4.76A15.71,15.71,0,0,0,708.64,25a18.37,18.37,0,0,0,.83,5.84,10,10,0,0,0,2.84,4.31,17.39,17.39,0,0,0,5.21,3.09,43.82,43.82,0,0,0,8,2.18l12.89,2.33q14.31,2.7,21,9t6.7,18.39A25.45,25.45,0,0,1,764,80.46a23.7,23.7,0,0,1-6.32,8.46,30.49,30.49,0,0,1-10.53,5.68,48.18,48.18,0,0,1-14.84,2.06A62.62,62.62,0,0,1,717.5,95a33.46,33.46,0,0,1-11.56-5.11A26.28,26.28,0,0,1,698.08,81a32.55,32.55,0,0,1-3.62-12.94Z"/><path class="cls-1" d="M790.73,68.05q1.54,9.66,7.66,14t18.24,4.32A32.37,32.37,0,0,0,826.74,85a17.86,17.86,0,0,0,6.52-3.6,12.87,12.87,0,0,0,3.48-5.28,19.82,19.82,0,0,0,1-6.37,20.83,20.83,0,0,0-.65-5.21A10.7,10.7,0,0,0,834.61,60a16.08,16.08,0,0,0-5.16-3.6A33.67,33.67,0,0,0,821,53.92l-11.6-2.06a69,69,0,0,1-12.12-3.09,30.08,30.08,0,0,1-8.95-5,19.12,19.12,0,0,1-5.54-7.53,28.46,28.46,0,0,1-1.87-10.94,22.38,22.38,0,0,1,2.65-11.07,23.92,23.92,0,0,1,7.15-8,31,31,0,0,1,10.7-4.76A55.17,55.17,0,0,1,814.83,0,50,50,0,0,1,830.1,2a28.64,28.64,0,0,1,10,5.35A22.85,22.85,0,0,1,846,15a45.43,45.43,0,0,1,3,8.83L837.89,26a32.29,32.29,0,0,0-2.64-6.9,15.14,15.14,0,0,0-4.25-5,18.5,18.5,0,0,0-6.51-3,36.9,36.9,0,0,0-9.41-1,41,41,0,0,0-10.56,1.16,19.41,19.41,0,0,0-6.84,3.15A11.21,11.21,0,0,0,794,19.12,15.71,15.71,0,0,0,792.92,25a18.37,18.37,0,0,0,.83,5.84,10,10,0,0,0,2.84,4.31,17.39,17.39,0,0,0,5.21,3.09,43.72,43.72,0,0,0,8,2.18l12.88,2.33q14.31,2.7,21,9t6.7,18.39a25.45,25.45,0,0,1-2.13,10.39,23.7,23.7,0,0,1-6.32,8.46,30.49,30.49,0,0,1-10.53,5.68,48.18,48.18,0,0,1-14.84,2.06A62.62,62.62,0,0,1,801.78,95a33.46,33.46,0,0,1-11.56-5.11A26.28,26.28,0,0,1,782.36,81a32.55,32.55,0,0,1-3.62-12.94Z"/><g id="Icon"><rect y="2.58" width="77.11" height="8.57"/><rect x="17.14" y="88.27" width="77.11" height="8.57"/><polygon points="23.36 19.7 77.19 73.53 77.21 79.57 71.13 79.59 17.3 25.76 17.32 19.68 23.36 19.7"/><rect y="19.72" width="8.57" height="77.11"/><rect x="85.68" y="2.58" width="8.57" height="77.11"/><polygon points="58.99 43.72 77 25.7 76.99 19.63 70.95 19.65 52.93 37.66 58.99 43.72"/><polygon points="34.75 55.84 17.12 73.47 17.1 79.52 23.18 79.53 40.81 61.9 34.75 55.84"/></g></svg>